<svg width="982" height="932" viewBox="0 0 982 932" fill="none" xmlns="http://www.w3.org/2000/svg">
<path fill-rule="evenodd" clip-rule="evenodd" d="M0 121.888V809.259C0 877.197 49.9544 931.147 111.898 931.147H869.204C931.148 931.147 981.102 877.197 981.102 809.259V121.888C981.102 53.9506 931.148 0 869.204 0H111.898C49.9544 0 0 53.9506 0 121.888Z" fill="#C2DEFD"/>
<path fill-rule="evenodd" clip-rule="evenodd" d="M325.703 223.795V413.621L573.476 557.489V651.404L655.401 699.36V509.534L407.628 367.663V271.751L325.703 223.795Z" fill="#00294B"/>
<path fill-rule="evenodd" clip-rule="evenodd" d="M325.703 509.534V605.446L573.476 747.316V651.404L325.703 509.534Z" fill="#00294B"/>
<path fill-rule="evenodd" clip-rule="evenodd" d="M655.401 319.707L407.627 175.839V271.751L655.401 413.621V319.707Z" fill="#00294B"/>
</svg>
